<?xml version="1.0" encoding="utf-8"?>
<svg xmlns="http://www.w3.org/2000/svg" xmlns:xlink="http://www.w3.org/1999/xlink" id="denielden_favicon" x="0px" y="0px" viewBox="0 0 50 50" style="enable-background:new 0 0 50 50;" xml:space="preserve">
<style type="text/css">
	.white{fill:#FFFFFF;}
	.purple{fill:#890052;}
	.orange{fill:#FF9200;}
</style>
<path class="white" d="M26.6,0c3.9,0.2,6.5,0.7,12.8,2.7l6.4,28.2L26.6,50v-2.4l17.4-17.3L38,4.1c-5.1-1.6-7.2-2-9.8-2.2L23.3,50
	L4.2,30.9l6.4-28.2c6.2-2,8.6-2.5,12.8-2.7l0,1.7C19.5,2,18,2.2,12,4.1l-6,26.3L22,46.2L26.6,0z"/>
<path class="purple" d="M26.6,0c3.9,0.2,6.5,0.7,12.8,2.7l6.4,28.2L26.6,50v-2.4l17.4-17.3L38,4.1c-5.1-1.6-7.2-2-9.8-2.2L23.3,50
	L4.2,30.9l6.4-28.2c6.2-2,8.6-2.5,12.8-2.7l0,1.7C19.5,2,18,2.2,12,4.1l-6,26.3L22,46.2L26.6,0z"/>
<path class="orange" d="M25,13.1c-1.8,0-3.3,1.5-3.3,3.3v9.9c0,1.8,1.5,3.3,3.3,3.3c1.8,0,3.3-1.5,3.3-3.3v-9.9
	C28.3,14.5,26.8,13.1,25,13.1z"/>
</svg>
